<svg xmlns="http://www.w3.org/2000/svg" width="240" height="104" viewBox="0 0 240 104" role="img" aria-labelledby="t d">
  <title id="t">BBB A+ Rated</title>
  <desc id="d">Better Business Bureau A+ Rated badge</desc>
  <rect width="240" height="104" rx="10" fill="#0f172a"/>
  <rect x="4" y="4" width="232" height="96" rx="8" fill="#ffffff"/>
  <rect x="10" y="10" width="80" height="84" rx="6" fill="#0d9488"/>
  <circle cx="50" cy="52" r="26" fill="#ffffff" opacity="0.95"/>
  <path d="M40 61V41h8c4 0 7 2 7 5 0 2-1 4-3 5 3 1 4 3 4 5 0 3-3 5-7 5h-9zm6-12h3c2 0 3-1 3-2s-1-2-3-2h-3v4zm0 8h4c2 0 3-1 3-2 0-2-1-2-3-2h-4v4z" fill="#0d9488"/>
  <text x="102" y="42" font-family="Inter, Arial, sans-serif" font-size="18" font-weight="700" fill="#0f172a">BBB Accredited</text>
  <text x="102" y="66" font-family="Inter, Arial, sans-serif" font-size="28" font-weight="800" fill="#0d9488">A+ Rated</text>
  <text x="102" y="84" font-family="Inter, Arial, sans-serif" font-size="11" fill="#334155">Independent trust signal</text>
</svg>
